Coordinates
version=1
nRows=11
nColumns=40
inDegrees=yes

Units are S.I. units (second, meters, Newtons, ...)
Angles are in degrees.

endheader
time	pelvis_tilt	pelvis_list	pelvis_rotation	pelvis_tx	pelvis_ty	pelvis_tz	hip_flexion_r	hip_adduction_r	hip_rotation_r	knee_angle_r	knee_angle_r_beta	ankle_angle_r	subtalar_angle_r	mtp_angle_r	hip_flexion_l	hip_adduction_l	hip_rotation_l	knee_angle_l	knee_angle_l_beta	ankle_angle_l	subtalar_angle_l	mtp_angle_l	lumbar_extension	lumbar_bending	lumbar_rotation	arm_flex_r	arm_add_r	arm_rot_r	elbow_flex_r	pro_sup_r	wrist_flex_r	wrist_dev_r	arm_flex_l	arm_add_l	arm_rot_l	elbow_flex_l	pro_sup_l	wrist_flex_l	wrist_dev_l
     15.69100000	     -2.59633123	     -1.52975406	     -1.64196938	      1.10415563	      0.91584180	      0.42140843	     28.44460244	     -3.91721544	    -14.69430570	     15.28787181	     15.28787181	      1.90894377	      0.39916749	      7.78950336	     -5.85357021	     -1.31393230	    -15.56795777	      9.31375063	      9.31375063	     17.55465502	     -5.07916568	     -9.78197187	     -9.37252711	      4.47354397	      2.03901724	    -19.26014193	    -12.69834257	    -13.21793714	     20.14395100	     47.54384029	      0.00000000	      0.00000000	     30.73894272	    -19.75186849	     -1.71448953	     80.58013996	     47.25181058	      0.00000000	      0.00000000
     15.70200000	     -2.64871286	     -1.61205060	     -1.58410472	      1.10626556	      0.91377060	      0.42317458	     28.29170332	     -3.59596275	    -14.69891894	     15.20010111	     15.20010111	      1.05676043	      0.27122512	      5.70440531	     -6.20001980	     -1.70765920	    -16.00776251	     10.21755774	     10.21755774	     19.41949059	     -3.81040772	     -7.32941483	     -9.23465905	      4.54154846	      1.26482815	    -20.69966583	    -12.72423010	    -14.44253901	     22.01571725	     47.53200001	      0.00000000	      0.00000000	     29.84878054	    -20.48556409	     -3.07048864	     84.21753407	     47.44636970	      0.00000000	      0.00000000
     15.71300000	     -2.72582105	     -1.80276259	     -1.48072142	      1.10835773	      0.91200247	      0.42499989	     28.19914802	     -3.25764888	    -14.74441790	     15.60292868	     15.60292868	      0.86533099	      0.15459517	      5.49356096	     -6.74777249	     -2.10168514	    -15.82220296	     10.48911166	     10.48911166	     19.78396275	     -3.92292055	     -7.30166032	     -8.94355928	      4.78174377	      1.17656510	    -21.75280721	    -12.68748948	    -14.49557946	     21.63260424	     47.54154331	      0.00000000	      0.00000000	     30.25170823	    -20.60160658	     -3.27339668	     84.75586096	     47.47428397	      0.00000000	      0.00000000
     15.72400000	     -2.76700988	     -2.07389462	     -1.42622512	      1.11042121	      0.91026560	      0.42721260	     28.10099583	     -2.74169305	    -14.22841161	     16.18590294	     16.18590294	     -0.90524173	     -1.46576084	      0.80247035	     -6.79746750	     -2.82119698	    -16.04829032	     11.99745229	     11.99745229	     21.56164710	     -3.31050926	     -4.85558104	     -8.93930067	      5.01641565	      1.22591352	    -22.91837794	    -12.47828887	    -15.27441023	     22.59221842	     47.52397903	      0.00000000	      0.00000000	     29.51574543	    -20.35536652	     -4.13191476	     88.58842989	     47.64305346	      0.00000000	      0.00000000
     15.73500000	     -2.72584017	     -2.31858096	     -1.34217430	      1.11251375	      0.90899461	      0.42938954	     28.19093243	     -2.49011053	    -14.15097399	     17.68873991	     17.68873991	     -0.92838247	     -2.07708329	     -0.09192400	     -7.17973670	     -3.38613969	    -15.85836194	     12.84466354	     12.84466354	     21.88585246	     -3.66609314	     -4.75796924	     -8.85279247	      5.25370101	      1.43812254	    -23.59083168	    -12.31809488	    -15.30907073	     22.28479110	     47.52826675	      0.00000000	      0.00000000	     29.73573304	    -20.06818420	     -4.30864191	     89.39729894	     47.67813265	      0.00000000	      0.00000000
     15.74600000	     -2.79145456	     -2.57404282	     -1.23798229	      1.11465595	      0.90785618	      0.43183964	     28.21423778	     -2.09593022	    -13.61411235	     18.86149366	     18.86149366	     -2.00929498	     -3.93361781	     -3.73053123	     -7.18150667	     -4.10931763	    -15.84325351	     14.28880821	     14.28880821	     22.75302674	     -3.59443236	     -3.56820797	     -8.72223888	      5.47192741	      1.15722090	    -23.94021862	    -12.19951100	    -15.75401187	     22.41326040	     47.51995324	      0.00000000	      0.00000000	     28.90279893	    -20.09067929	     -5.19605538	     91.86774842	     47.83156475	      0.00000000	      0.00000000
     15.75700000	     -2.75439813	     -2.81186380	     -1.12139483	      1.11668716	      0.90724555	      0.43429625	     28.29072829	     -1.87751405	    -13.44710527	     20.56134061	     20.56134061	     -1.63525002	     -4.72651432	     -4.35132183	     -7.23193590	     -4.78553280	    -15.53393016	     15.72523481	     15.72523481	     22.76015088	     -4.26465256	     -3.70157589	     -8.69992846	      5.67185992	      1.44165478	    -24.23009340	    -12.00108857	    -15.75567229	     22.17370425	     47.52122742	      0.00000000	      0.00000000	     28.82912392	    -19.69166278	     -5.27062231	     92.70451527	     47.86046495	      0.00000000	      0.00000000
     15.76800000	     -2.73790133	     -3.08123705	     -1.00927019	      1.11872370	      0.90699223	      0.43691252	     28.29187229	     -1.58356275	    -13.20470406	     22.11349792	     22.11349792	     -1.13027155	     -5.63858003	     -4.79490074	     -7.04984540	     -5.56523756	    -15.20515125	     17.54943620	     17.54943620	     22.56330307	     -5.08495962	     -3.99415750	     -8.64985234	      5.90696693	      1.59581923	    -24.24774368	    -11.76810373	    -15.77677060	     22.02487539	     47.52213245	      0.00000000	      0.00000000	     28.30181184	    -19.32104001	     -5.38755150	     93.74789149	     47.89540014	      0.00000000	      0.00000000
     15.77900000	     -2.68828402	     -3.35977254	     -0.87539501	      1.12068552	      0.90723339	      0.43958740	     28.12689189	     -1.23756671	    -12.92224473	     23.43811922	     23.43811922	     -0.29995347	     -6.51119887	     -4.60387205	     -6.73214725	     -6.39459557	    -14.80188987	     19.61891748	     19.61891748	     21.82898941	     -6.20427098	     -4.99205123	     -8.67853545	      6.13923063	      1.23890018	    -23.60229655	    -11.77250081	    -15.87368583	     21.69382640	     47.53410464	      0.00000000	      0.00000000	     27.01151224	    -19.30816510	     -6.12979173	     95.58332567	     48.00332720	      0.00000000	      0.00000000
     15.79000000	     -2.60298128	     -3.58456686	     -0.71346440	      1.12250932	      0.90786195	      0.44218610	     27.78676167	     -1.02779841	    -13.01673053	     24.52191138	     24.52191138	      0.59881117	     -6.69380157	     -4.83928374	     -6.18142180	     -7.21639967	    -14.30519157	     22.14972995	     22.14972995	     21.04248396	     -7.35933911	     -5.52822119	     -8.74064390	      6.32672545	      1.46086952	    -23.15391610	    -11.59289570	    -15.82371964	     21.56584083	     47.53464652	      0.00000000	      0.00000000	     26.40619450	    -18.83644222	     -6.17335677	     96.04669127	     48.02038846	      0.00000000	      0.00000000
     15.80100000	     -2.37544735	     -3.81762223	     -0.55992153	      1.12429682	      0.90908593	      0.44480866	     27.13856825	     -0.76691187	    -13.12500283	     25.30515758	     25.30515758	      1.54674681	     -6.76878976	     -4.99712349	     -5.62409637	     -8.06043441	    -13.77318995	     24.92169224	     24.92169224	     19.97485300	     -8.66038262	     -6.02052161	     -8.96827894	      6.51727538	      1.65324942	    -22.49977429	    -11.47006830	    -15.77296960	     21.55285081	     47.53411654	      0.00000000	      0.00000000	     25.60776968	    -18.38183612	     -6.13127494	     96.32787300	     48.02461267	      0.00000000	      0.00000000
